<svg xmlns="http://www.w3.org/2000/svg" viewBox="1.4 6.5 29 13"  xml:space="preserve"><defs><style>.cls-1{fill:#f5f4ed;}.cls-2{fill:#b4d1c8;}.cls-3{fill:#e64140;}.cls-4{fill:none;stroke:#e6e7e8;stroke-miterlimit:10;stroke-width:0.05px;}</style></defs><title>zenLogoSmallAsset 32</title><g id="Layer_2" data-name="Layer 2"><g id="Layer_1-2" data-name="Layer 1"><rect class="cls-1" width="32" height="26"/><path class="cls-2" d="M4.63,14.11a.31.31,0,0,1,0-.1s0-.1.11-.15A.54.54,0,0,1,5,13.78H5.1a.47.47,0,0,1,0-.19.39.39,0,0,1,.08-.25.24.24,0,0,1,.21-.12.51.51,0,0,0,0,.13.34.34,0,0,0,0,.16.78.78,0,0,0,.1.15l.11.15a.62.62,0,0,1,.13.38.75.75,0,0,1-.09.37.7.7,0,0,1-.23.28,1.07,1.07,0,0,1-.68.23,1,1,0,0,1-.47-.13.73.73,0,0,1-.32-.37,1.64,1.64,0,0,1-.49.44.35.35,0,0,1-.17.06A.16.16,0,0,1,3.16,15a.14.14,0,0,1-.06-.1.2.2,0,0,1,0-.09,2.54,2.54,0,0,0,.5-.69,2.73,2.73,0,0,0,.23-.52,1.72,1.72,0,0,0,.09-.51.25.25,0,0,0,0-.13l0-.06L4,12.86l.15-.13a1.8,1.8,0,0,0,.18-.2.88.88,0,0,0,.16-.27,1,1,0,0,0,.06-.35.38.38,0,0,0-.12-.3.37.37,0,0,0-.27-.12.26.26,0,0,0-.23.1.35.35,0,0,0-.08.22.38.38,0,0,0,.07.22.22.22,0,0,0,.17.09h.15a.2.2,0,0,1,0,.09s0,.08-.1.12a.47.47,0,0,1-.28.07H3.77a.47.47,0,0,1,0,.19.46.46,0,0,1-.08.24.24.24,0,0,1-.21.12.44.44,0,0,0,0-.13.53.53,0,0,0,0-.16.69.69,0,0,0-.1-.17l-.11-.16a.68.68,0,0,1-.13-.4.57.57,0,0,1,.14-.38.88.88,0,0,1,.36-.24,1.22,1.22,0,0,1,.47-.08,1,1,0,0,1,.48.11.59.59,0,0,1,.29.33,1.92,1.92,0,0,1,.49-.4.41.41,0,0,1,.17,0,.19.19,0,0,1,.12,0,.18.18,0,0,1,0,.11s0,.06,0,.08a2.16,2.16,0,0,0-.5.65,2.3,2.3,0,0,0-.23.5,1.55,1.55,0,0,0-.09.49.54.54,0,0,0,.05.19l-.11.11a1.23,1.23,0,0,0-.2.19l-.15.21a1,1,0,0,0-.16.58.35.35,0,0,0,.13.3.44.44,0,0,0,.29.11A.33.33,0,0,0,5,14.69a.38.38,0,0,0,.08-.24A.46.46,0,0,0,5,14.2a.3.3,0,0,0-.24-.11Z"/><path class="cls-2" d="M7.69,12.86a.27.27,0,0,1-.17.22.18.18,0,0,1,.09.07.28.28,0,0,1,.08.15c0,.07,0,.12-.05.13h0A1.25,1.25,0,0,0,7,13.29l-.1,1c0,.11,0,.17.09.2a.48.48,0,0,0,.18,0,.19.19,0,0,0,.17-.09.33.33,0,0,0,.07-.21.51.51,0,0,0-.17-.37.13.13,0,0,1,.14-.09.4.4,0,0,1,.3.1l0,0A.43.43,0,0,1,8,13.78l.11,0a.18.18,0,0,1,.05.07.57.57,0,0,0-.19.48.61.61,0,0,0,.21.51s0,.07-.09.09L8,15a.5.5,0,0,1-.4-.23.53.53,0,0,1-.24.17.78.78,0,0,1-.26.06l-.17,0-.11,0-.09-.05-.07-.06-.1-.1a.54.54,0,0,1-.29.24.38.38,0,0,1-.16,0,.33.33,0,0,1-.15,0,.15.15,0,0,1-.07-.07v0A.51.51,0,0,0,6,14.7l.06-.09a.19.19,0,0,0,0-.09.81.81,0,0,1,0-.11.88.88,0,0,1,0-.14v-.35a1,1,0,0,0-.23-.79s0,0,0,0a.06.06,0,0,1,0-.05L6,13a.63.63,0,0,0,.07-.12,1.42,1.42,0,0,0,.09-.59,2,2,0,0,0-.06-.58.87.87,0,0,0-.22-.33s0-.09.13-.12h.14a.41.41,0,0,1,.2.06.57.57,0,0,1,.16.14l0,.06A.61.61,0,0,1,7,11.22a.79.79,0,0,1,.3,0,.58.58,0,0,1,.25.17.49.49,0,0,1,.4-.22.22.22,0,0,1,.12,0,.16.16,0,0,1,.06.08.49.49,0,0,0-.16.2.78.78,0,0,0,0,.28.5.5,0,0,0,.19.43l-.05.06a.21.21,0,0,1-.12,0l-.16,0-.11-.07,0,0a.46.46,0,0,1-.31.13l-.11,0a.18.18,0,0,1,0-.07.46.46,0,0,0,.16-.35c0-.15-.08-.22-.25-.22s-.25.05-.25.16v0l.1,1a2,2,0,0,0,.4,0,.56.56,0,0,0,.26-.11s0,0,0,0A.19.19,0,0,1,7.69,12.86Z"/><path class="cls-2" d="M9,14.7a.47.47,0,0,1-.39.27.34.34,0,0,1-.16,0s-.07,0-.07-.07v0a1,1,0,0,0,.22-.34A1.47,1.47,0,0,0,8.66,14a2.64,2.64,0,0,0,0-.45.7.7,0,0,0-.06-.25.57.57,0,0,0-.08-.13l-.06-.07a0,0,0,0,1,0,0,.06.06,0,0,1,0-.05A.22.22,0,0,0,8.49,13a.36.36,0,0,0,.08-.12,1.42,1.42,0,0,0,.09-.59,2,2,0,0,0-.06-.58,1.06,1.06,0,0,0-.22-.33s0-.09.13-.12h.11a.46.46,0,0,1,.39.24l.05-.08.09-.08a.36.36,0,0,1,.23-.08.42.42,0,0,1,.18,0,.15.15,0,0,1,.07.07v0a.68.68,0,0,0-.21.25,1,1,0,0,0-.07.34l.75,1.19a3.67,3.67,0,0,0,.08-1,1.61,1.61,0,0,0-.06-.5,1.06,1.06,0,0,0-.22-.33s0-.09.13-.12h.11a.44.44,0,0,1,.38.24l0,0,0,0,.08-.08a.34.34,0,0,1,.23-.08.4.4,0,0,1,.17,0,.14.14,0,0,1,.08.07v0a1.06,1.06,0,0,0-.22.33,1.47,1.47,0,0,0-.06.46,2.86,2.86,0,0,0,0,.46,1.53,1.53,0,0,0,.06.25.62.62,0,0,0,.08.12.22.22,0,0,0,.06.07s0,0,0,.05a.05.05,0,0,1,0,0l-.06.07-.08.13a1.49,1.49,0,0,0-.09.59,2,2,0,0,0,.06.57,1,1,0,0,0,.22.34c0,.05,0,.09-.13.12l-.13,0a.34.34,0,0,1-.18-.07.6.6,0,0,1-.14-.13l-.05-.07a.28.28,0,0,1,0,.08l-.09.09a.34.34,0,0,1-.21.1L10,15l-.08,0a.14.14,0,0,1-.05-.09.79.79,0,0,0,.19-.27.92.92,0,0,0,.08-.37L9.37,13c0,.19,0,.45,0,.78a2.54,2.54,0,0,0,.06.68,1,1,0,0,0,.23.34c0,.05-.05.1-.13.12l-.12,0A.44.44,0,0,1,9,14.7Z"/><path class="cls-2" d="M12.72,12.23a.94.94,0,0,1,1.06-1.07,1.05,1.05,0,0,1,.7.23.79.79,0,0,1,.22.59,1.23,1.23,0,0,0,.18.76.08.08,0,0,1-.05,0,.11.11,0,0,1-.08,0h-.09l-.08,0-.06,0-.06,0-.05,0,0,0s0,0,0,0l0,0h0l0,0-.1.09a.33.33,0,0,1-.15,0h-.1l-.07,0,0,0,0,0,0,0s0,0,0,0,0-.05.07-.13A1.24,1.24,0,0,0,14,12c0-.19,0-.31-.13-.35a.26.26,0,0,0-.14,0,.43.43,0,0,0-.17,0,.26.26,0,0,0-.1.13,1,1,0,0,0-.06.37,2.37,2.37,0,0,0,0,.41,1,1,0,0,0,.07.25.74.74,0,0,0,.08.13l.06.08a.09.09,0,0,1,0,.05l0,0-.07.07a.63.63,0,0,0-.07.12,1.61,1.61,0,0,0-.09.63v.13a2.05,2.05,0,0,0,0,.36l0,.09,0,.05,0,0a.16.16,0,0,0,.12,0,.29.29,0,0,0,.14,0,.23.23,0,0,0,.07-.1.89.89,0,0,0,.05-.13,2.63,2.63,0,0,0,0-.31.86.86,0,0,0,0-.31.49.49,0,0,0-.17-.22s0-.07.1-.09l.11,0a.53.53,0,0,1,.16,0,.49.49,0,0,1,.13.08l0,0a.55.55,0,0,1,.17-.1.53.53,0,0,1,.2-.05.26.26,0,0,1,.14,0,.12.12,0,0,1,.06.08.49.49,0,0,0-.16.2,1.58,1.58,0,0,0,0,.37,1.09,1.09,0,0,0,.06.4.78.78,0,0,0,.23.3c0,.05,0,.09-.09.13a.41.41,0,0,1-.19.05.44.44,0,0,1-.21-.07.49.49,0,0,1-.17-.18.79.79,0,0,1-.68.35A.83.83,0,0,1,13,14.8a1.25,1.25,0,0,1-.24-.85c0-.42-.07-.69-.23-.82l0,0a.05.05,0,0,1,0,0l.07-.07.07-.11A1.57,1.57,0,0,0,12.72,12.23Z"/><path class="cls-2" d="M17.26,14.72a.4.4,0,0,1-.37.25.34.34,0,0,1-.18,0,.31.31,0,0,1-.1-.1.68.68,0,0,0,.15-.45,1.35,1.35,0,0,0,0-.34c0-.08-.05-.16-.07-.25a2.5,2.5,0,0,1-.07-.26H16s0,.1,0,.19l-.05.21a1.83,1.83,0,0,0,0,.4.73.73,0,0,0,.17.49h0l0,0,0,0a.21.21,0,0,1-.13.05.21.21,0,0,1-.12,0l-.09-.06a.39.39,0,0,1-.1-.16,1.06,1.06,0,0,1-.23.17.52.52,0,0,1-.24.08c-.1,0-.16,0-.16-.13h0a1.07,1.07,0,0,0,.29-.32,2.7,2.7,0,0,0,.2-.51l.12-.42a.62.62,0,0,0-.26.12s0,0,0,0a.19.19,0,0,1,0-.08c0-.07,0-.14.16-.19l-.08-.06a.24.24,0,0,1-.08-.13s0-.06,0-.07,0,0,0,0l0,0a.72.72,0,0,0,.36.14l.27-.95a2,2,0,0,0,.09-.51.68.68,0,0,0-.12-.38h0c0-.09.09-.13.26-.13a.39.39,0,0,1,.29.17.73.73,0,0,1,.08.09.42.42,0,0,1,.26-.24l.16,0a.17.17,0,0,1,.12,0,.17.17,0,0,1,.06.11,1.46,1.46,0,0,0-.06.44,2,2,0,0,0,0,.45,3.1,3.1,0,0,0,.1.36,1.1,1.1,0,0,0,.13.25.49.49,0,0,0,.1.13l.08.06s0,0,0,0a.08.08,0,0,1,0,0l0,0a.46.46,0,0,0-.06.28,2,2,0,0,0,.16.78,1.46,1.46,0,0,0,.38.58h0c0,.08-.08.13-.23.13A.69.69,0,0,1,17.26,14.72Zm-.75-1.49c-.12-.51-.19-.79-.2-.83-.06.26-.13.54-.2.83h.4Z"/><path class="cls-2" d="M18.68,14.72l-.06.08-.08.08a.37.37,0,0,1-.41,0,.15.15,0,0,1-.07-.07v0a.8.8,0,0,0,.22-.35,1.75,1.75,0,0,0,.06-.48,2.62,2.62,0,0,0,0-.43,1.36,1.36,0,0,0-.06-.24.49.49,0,0,0-.08-.13l-.06-.07a.05.05,0,0,1,0,0s0,0,0-.05l.06-.07a.49.49,0,0,0,.08-.13,1.76,1.76,0,0,0,.08-.6,1.87,1.87,0,0,0-.06-.57.8.8,0,0,0-.22-.32s0-.09.13-.12h.12a.39.39,0,0,1,.15,0l.13.06a1,1,0,0,1,.18.15s0,0,.06-.08l.1-.07a.71.71,0,0,1,.36-.08h.29l.2,0,.18,0,.14.08a.43.43,0,0,1,.12.11.6.6,0,0,1,.13.28,1,1,0,0,0,0,.22.29.29,0,0,0,.06.1l.08.1,0,0,0,.07a.59.59,0,0,0-.09.29.51.51,0,0,1-.12.3A.36.36,0,0,1,20,13a.55.55,0,0,1,.36.39,3.21,3.21,0,0,1,.08.47c0,.21,0,.36,0,.45a.73.73,0,0,0,.29.48.72.72,0,0,1-.52.2.44.44,0,0,1-.3-.1.58.58,0,0,1-.18-.25,3,3,0,0,1-.08-.35c0-.12,0-.25,0-.37a3.39,3.39,0,0,0,0-.35c0-.23-.11-.35-.23-.35h-.32V14a1.79,1.79,0,0,0,.06.53,1.13,1.13,0,0,0,.2.35c0,.05,0,.1-.12.12l-.12,0a.28.28,0,0,1-.13,0l-.11-.06A.56.56,0,0,1,18.68,14.72Zm.84-3a.22.22,0,0,0-.16-.05.64.64,0,0,0-.2,0c-.07,0-.11.06-.11.08v1.1a1,1,0,0,0,.41-.06.2.2,0,0,0,.13-.2v-.79A.13.13,0,0,0,19.52,11.71Z"/><path class="cls-2" d="M20.87,14.83a1.08,1.08,0,0,0,.28-.83,1.71,1.71,0,0,0-.09-.67.41.41,0,0,0-.11-.17l-.05-.07s0,0,0-.05L21,13a.5.5,0,0,0,.07-.13,1.51,1.51,0,0,0,.09-.6,1.87,1.87,0,0,0-.06-.57.92.92,0,0,0-.22-.32s0-.09.13-.12h.14a.47.47,0,0,1,.34.17l.05.06a1,1,0,0,1,.78-.23.93.93,0,0,1,.66.2,1.06,1.06,0,0,1,.28.81,1.22,1.22,0,0,0,.18.81s0,0,0,.05a.08.08,0,0,1,0,0l-.05.07a.53.53,0,0,0-.06.13,2,2,0,0,0-.07.66,1,1,0,0,1-.25.73.92.92,0,0,1-.67.25,1,1,0,0,1-.8-.27.62.62,0,0,1-.27.24.41.41,0,0,1-.16,0,.33.33,0,0,1-.15,0s-.07,0-.07-.07ZM22.48,12c0-.24-.09-.36-.28-.36s-.27.05-.3.16a.7.7,0,0,0,0,.24c0,.11,0,.22,0,.34s0,.2,0,.27,0,.13,0,.17A.43.43,0,0,0,22,13L22,13a.12.12,0,0,1,0,.08.11.11,0,0,1,0,.06l-.06.11a2,2,0,0,0-.09.75.86.86,0,0,0,.07.43.27.27,0,0,0,.24.1.3.3,0,0,0,.2,0,.33.33,0,0,0,.06-.08.81.81,0,0,0,0-.11,2.18,2.18,0,0,0,0-.28v0a1.86,1.86,0,0,0-.09-.73l-.06-.11a.13.13,0,0,1,0-.07.08.08,0,0,1,0,0,.56.56,0,0,0,.05-.08l.05-.14A3.54,3.54,0,0,0,22.48,12Z"/><path class="cls-2" d="M25.51,12.86a.26.26,0,0,1-.16.22.18.18,0,0,1,.09.07.25.25,0,0,1,.07.15c0,.07,0,.12,0,.13h0a1.25,1.25,0,0,0-.66-.14l-.11,1a.2.2,0,0,0,.1.2.48.48,0,0,0,.18,0,.2.2,0,0,0,.17-.09.33.33,0,0,0,.06-.21.5.5,0,0,0-.16-.37c0-.06.06-.09.13-.09a.39.39,0,0,1,.3.1l0,0a.42.42,0,0,1,.3-.14l.11,0a.13.13,0,0,1,.06.07.57.57,0,0,0-.19.48.61.61,0,0,0,.21.51s0,.07-.1.09l-.08,0a.49.49,0,0,1-.4-.23.51.51,0,0,1-.25.17.73.73,0,0,1-.26.06l-.17,0-.11,0-.08-.05-.08-.06a.41.41,0,0,1-.09-.1.57.57,0,0,1-.29.24.41.41,0,0,1-.16,0,.33.33,0,0,1-.15,0c-.05,0-.07,0-.07-.07v0a.69.69,0,0,0,.15-.13l.06-.09a.46.46,0,0,0,0-.09.65.65,0,0,0,0-.11.49.49,0,0,0,0-.14c0-.06,0-.11,0-.15v-.2a1,1,0,0,0-.23-.79l0,0s0,0,0-.05L23.8,13a.62.62,0,0,0,.08-.12,1.42,1.42,0,0,0,.09-.59,1.92,1.92,0,0,0-.07-.58.77.77,0,0,0-.22-.33s.05-.09.13-.12H24a.41.41,0,0,1,.2.06.51.51,0,0,1,.15.14l.05.06a.63.63,0,0,1,.5-.26.82.82,0,0,1,.3,0,.65.65,0,0,1,.25.17.47.47,0,0,1,.39-.22.25.25,0,0,1,.13,0,.16.16,0,0,1,.06.08.52.52,0,0,0-.17.2.79.79,0,0,0,0,.28.52.52,0,0,0,.18.43s0,0-.05.06a.21.21,0,0,1-.12,0,.4.4,0,0,1-.15,0l-.11-.07,0,0a.43.43,0,0,1-.3.13l-.11,0a.13.13,0,0,1-.06-.07.47.47,0,0,0,.17-.35c0-.15-.08-.22-.25-.22s-.25.05-.25.16v0l.1,1a2.1,2.1,0,0,0,.4,0,.56.56,0,0,0,.26-.11s0,0,0,0A.11.11,0,0,1,25.51,12.86Z"/><path class="cls-2" d="M26.83,14.7a.44.44,0,0,1-.38.27.39.39,0,0,1-.17,0,.15.15,0,0,1-.07-.07v0a.86.86,0,0,0,.22-.34,1.47,1.47,0,0,0,.06-.46,2.83,2.83,0,0,0,0-.45,1.85,1.85,0,0,0-.06-.25l-.08-.13-.06-.07a.05.05,0,0,1,0,0s0,0,0-.05l.06-.07a.62.62,0,0,0,.08-.12,1.45,1.45,0,0,0,.08-.59,2,2,0,0,0-.06-.58.91.91,0,0,0-.22-.33s.05-.09.13-.12h.12a.44.44,0,0,1,.38.24l.06-.08L27,11.3a.34.34,0,0,1,.23-.08.4.4,0,0,1,.17,0s.07.05.07.07v0a.76.76,0,0,0-.2.25.94.94,0,0,0-.08.34l.76,1.19a3.83,3.83,0,0,0,.07-1,1.61,1.61,0,0,0-.06-.5.91.91,0,0,0-.22-.33s0-.09.13-.12H28a.44.44,0,0,1,.38.24l0,0,.05,0,.07-.08a.36.36,0,0,1,.23-.08.42.42,0,0,1,.18,0,.15.15,0,0,1,.07.07v0a.91.91,0,0,0-.22.33,1.47,1.47,0,0,0-.06.46c0,.19,0,.34,0,.46a.85.85,0,0,0,.07.25.63.63,0,0,0,.07.12l.07.07s0,0,0,.05l0,0-.07.07s-.05.08-.07.13a1.49,1.49,0,0,0-.09.59,2,2,0,0,0,.06.57.86.86,0,0,0,.22.34c0,.05,0,.09-.13.12l-.14,0a.37.37,0,0,1-.18-.07.92.92,0,0,1-.14-.13l0-.07-.06.08-.08.09A.4.4,0,0,1,28,15l-.15,0-.07,0a.24.24,0,0,1-.06-.09.82.82,0,0,0,.2-.27,1.13,1.13,0,0,0,.08-.37L27.19,13c0,.19,0,.45,0,.78a2.54,2.54,0,0,0,.06.68.86.86,0,0,0,.22.34c0,.05,0,.1-.13.12l-.11,0A.47.47,0,0,1,26.83,14.7Z"/><path class="cls-3" d="M4.55,13.88a.31.31,0,0,1,0-.1s0-.09.11-.15A.54.54,0,0,1,5,13.55H5a.47.47,0,0,1,0-.19.38.38,0,0,1,.08-.24A.24.24,0,0,1,5.28,13a.37.37,0,0,0,0,.12.34.34,0,0,0,0,.16.86.86,0,0,0,.1.16l.11.14a.62.62,0,0,1,.13.38.75.75,0,0,1-.09.37.63.63,0,0,1-.23.28,1.07,1.07,0,0,1-.68.23.85.85,0,0,1-.47-.13.75.75,0,0,1-.32-.36,1.59,1.59,0,0,1-.49.43.35.35,0,0,1-.17.06.16.16,0,0,1-.11-.05.14.14,0,0,1-.06-.1.13.13,0,0,1,0-.08,2.81,2.81,0,0,0,.5-.7,2.48,2.48,0,0,0,.23-.52,1.72,1.72,0,0,0,.09-.51.25.25,0,0,0,0-.13l0-.06.06-.06L4,12.5l.18-.19A1.08,1.08,0,0,0,4.36,12a1,1,0,0,0,.06-.35.39.39,0,0,0-.12-.3A.37.37,0,0,0,4,11.26a.29.29,0,0,0-.23.1.35.35,0,0,0-.08.22.38.38,0,0,0,.07.22.24.24,0,0,0,.17.1l.15,0a.2.2,0,0,1,0,.09s0,.08-.1.12a.47.47,0,0,1-.28.07H3.69a.47.47,0,0,1,0,.19.46.46,0,0,1-.08.25.24.24,0,0,1-.21.12.51.51,0,0,0,0-.13.59.59,0,0,0,0-.17,1,1,0,0,0-.1-.17L3.2,12.1a.71.71,0,0,1-.13-.41.59.59,0,0,1,.14-.38.88.88,0,0,1,.36-.24A1.45,1.45,0,0,1,4,11a1.13,1.13,0,0,1,.48.11.62.62,0,0,1,.29.33A1.68,1.68,0,0,1,5.3,11a.32.32,0,0,1,.17,0,.16.16,0,0,1,.12,0,.14.14,0,0,1,0,.1s0,.06,0,.08a2.16,2.16,0,0,0-.5.65,2.54,2.54,0,0,0-.23.5,1.55,1.55,0,0,0-.09.49.49.49,0,0,0,.05.19l-.11.11a1.88,1.88,0,0,0-.2.19l-.15.21a1.06,1.06,0,0,0-.16.58.35.35,0,0,0,.13.3.44.44,0,0,0,.29.11.33.33,0,0,0,.25-.09A.36.36,0,0,0,5,14.23.47.47,0,0,0,4.91,14a.3.3,0,0,0-.24-.11Z"/><path class="cls-3" d="M7.61,12.63c0,.09-.06.16-.17.23l.09.06a.28.28,0,0,1,.08.15c0,.08,0,.12-.05.13h0a1.26,1.26,0,0,0-.66-.13l-.1,1a.19.19,0,0,0,.09.19.48.48,0,0,0,.18,0,.19.19,0,0,0,.17-.09A.33.33,0,0,0,7.29,14a.49.49,0,0,0-.17-.36.12.12,0,0,1,.14-.1.45.45,0,0,1,.3.1l0,0a.43.43,0,0,1,.31-.14.2.2,0,0,1,.11,0,.13.13,0,0,1,.05.07.57.57,0,0,0-.19.48.64.64,0,0,0,.21.51s0,.07-.09.09H7.9a.51.51,0,0,1-.4-.22.6.6,0,0,1-.24.16.78.78,0,0,1-.26.06l-.17,0-.11,0-.09,0-.07-.06-.1-.1a.54.54,0,0,1-.29.24.38.38,0,0,1-.16,0,.24.24,0,0,1-.15,0,.12.12,0,0,1-.07-.07v0a.51.51,0,0,0,.15-.13L6,14.39a.29.29,0,0,0,0-.1l0-.11a.78.78,0,0,1,0-.13v-.36a1,1,0,0,0-.23-.79,0,0,0,0,1,0,0,.06.06,0,0,1,0,0l.07-.06A.5.5,0,0,0,6,12.62,1.42,1.42,0,0,0,6.06,12,2,2,0,0,0,6,11.45a.92.92,0,0,0-.22-.32c0-.06,0-.1.13-.13h.14a.35.35,0,0,1,.2.07.43.43,0,0,1,.16.13l0,.07A.62.62,0,0,1,7,11a1,1,0,0,1,.3,0,.58.58,0,0,1,.25.17A.49.49,0,0,1,7.9,11L8,11a.16.16,0,0,1,.06.08.49.49,0,0,0-.16.2.78.78,0,0,0,0,.28.49.49,0,0,0,.19.43.15.15,0,0,1-.05.06.21.21,0,0,1-.12,0l-.16,0A.52.52,0,0,1,7.62,12l0,0a.42.42,0,0,1-.31.13l-.11,0a.18.18,0,0,1,0-.07.46.46,0,0,0,.16-.35c0-.15-.08-.22-.25-.22s-.25.05-.25.16v0l.1,1a2,2,0,0,0,.4,0,.67.67,0,0,0,.26-.1s0,0,0,0A.19.19,0,0,1,7.61,12.63Z"/><path class="cls-3" d="M8.93,14.47a.47.47,0,0,1-.39.27.25.25,0,0,1-.16,0s-.07,0-.07-.07v0a1,1,0,0,0,.22-.34,1.47,1.47,0,0,0,.06-.46,2.72,2.72,0,0,0,0-.45.7.7,0,0,0-.06-.25A.36.36,0,0,0,8.41,13a.28.28,0,0,0-.06-.08,0,0,0,0,1,0,0,.06.06,0,0,1,0,0l.06-.06a.32.32,0,0,0,.08-.13A1.42,1.42,0,0,0,8.58,12a2,2,0,0,0-.06-.58.92.92,0,0,0-.22-.32c0-.06,0-.1.13-.13h.11a.46.46,0,0,1,.39.24A.5.5,0,0,1,9,11.16a.75.75,0,0,1,.09-.09A.43.43,0,0,1,9.3,11a.42.42,0,0,1,.18,0l.07.07v0a.59.59,0,0,0-.21.24,1,1,0,0,0-.07.34L10,12.9a3.67,3.67,0,0,0,.08-1,1.61,1.61,0,0,0-.06-.5.92.92,0,0,0-.22-.32c0-.06,0-.1.13-.13h.11a.44.44,0,0,1,.38.24l0,0,0-.06.08-.08A.41.41,0,0,1,11,11c.05,0,.07.05.07.07v0a.92.92,0,0,0-.22.32,1.47,1.47,0,0,0-.06.46,2.77,2.77,0,0,0,0,.46,1.3,1.3,0,0,0,.06.25.49.49,0,0,0,.08.13l.06.06s0,0,0,0a.05.05,0,0,1,0,0A.28.28,0,0,0,11,13a.62.62,0,0,0-.08.12,1.49,1.49,0,0,0-.09.59,2,2,0,0,0,.06.57,1,1,0,0,0,.22.34c0,.05,0,.1-.13.12l-.13,0a.27.27,0,0,1-.18-.07.45.45,0,0,1-.14-.13l-.05-.07s0,0,0,.08l-.09.09a.29.29,0,0,1-.21.1l-.14,0-.08,0a.14.14,0,0,1-.05-.09.7.7,0,0,0,.19-.27A.92.92,0,0,0,10.1,14L9.29,12.8c0,.2,0,.46,0,.79a2.45,2.45,0,0,0,.06.67,1,1,0,0,0,.23.34c0,.06-.05.1-.13.12l-.12,0A.44.44,0,0,1,8.93,14.47Z"/><path class="cls-3" d="M12.64,12a.94.94,0,0,1,1.06-1.07,1,1,0,0,1,.7.24.75.75,0,0,1,.22.58,1.23,1.23,0,0,0,.18.76.08.08,0,0,1-.05.05.11.11,0,0,1-.08,0h-.09l-.08,0-.06,0-.06,0-.05,0,0,0,0,0,0,0h0l0,.05-.1.08a.33.33,0,0,1-.15.05h-.1l-.07,0,0,0,0,0,0,0v0l.07-.12a1.33,1.33,0,0,0,.19-.52c0-.19,0-.3-.13-.35a.26.26,0,0,0-.14,0,.31.31,0,0,0-.17,0,.23.23,0,0,0-.1.12,1,1,0,0,0-.06.38,2.33,2.33,0,0,0,0,.4,1,1,0,0,0,.07.25.74.74,0,0,0,.08.13.81.81,0,0,0,.06.08.09.09,0,0,1,0,.05l0,0-.07.07a.5.5,0,0,0-.07.13,1.52,1.52,0,0,0-.09.62v.13a2.05,2.05,0,0,0,0,.36l0,.09,0,.05,0,0a.21.21,0,0,0,.12,0,.29.29,0,0,0,.14,0,.28.28,0,0,0,.07-.09,1.09,1.09,0,0,0,.05-.14,2.55,2.55,0,0,0,0-.31.9.9,0,0,0,0-.31.49.49,0,0,0-.17-.22s0-.07.1-.09h.11l.16,0a.49.49,0,0,1,.13.08l0,0a.42.42,0,0,1,.17-.11.51.51,0,0,1,.2,0,.28.28,0,0,1,.14,0,.12.12,0,0,1,.06.08.49.49,0,0,0-.16.2,1.64,1.64,0,0,0,0,.37,1.15,1.15,0,0,0,.06.41.76.76,0,0,0,.23.29.15.15,0,0,1-.09.13.41.41,0,0,1-.19.05.35.35,0,0,1-.21-.07.49.49,0,0,1-.17-.18.79.79,0,0,1-.68.35.83.83,0,0,1-.67-.27,1.25,1.25,0,0,1-.24-.85,1.06,1.06,0,0,0-.23-.82.08.08,0,0,1,0,0l0,0,.07-.07a.35.35,0,0,0,.07-.11A1.57,1.57,0,0,0,12.64,12Z"/><path class="cls-3" d="M17.18,14.49a.38.38,0,0,1-.37.25.36.36,0,0,1-.18,0,.47.47,0,0,1-.1-.11.68.68,0,0,0,.15-.45,1.35,1.35,0,0,0,0-.34c0-.08,0-.16-.07-.24s0-.18-.07-.26H16s0,.1-.05.19l-.05.21a1.83,1.83,0,0,0,0,.4.73.73,0,0,0,.17.49h0l0,0,0,0a.21.21,0,0,1-.13.05.28.28,0,0,1-.13,0,.24.24,0,0,1-.08-.06.39.39,0,0,1-.1-.16.81.81,0,0,1-.23.17.52.52,0,0,1-.24.08c-.1,0-.16,0-.16-.12v0a1.07,1.07,0,0,0,.29-.32,2.45,2.45,0,0,0,.2-.51l.12-.42a.62.62,0,0,0-.26.12.05.05,0,0,1,0,0,.29.29,0,0,1,0-.09c0-.07,0-.14.16-.19l-.08-.06c-.05,0-.08-.09-.08-.13a.15.15,0,0,1,0-.07s0,0,0,0l0,0a.73.73,0,0,0,.36.15l.27-1a2,2,0,0,0,.09-.51.71.71,0,0,0-.12-.38h0c0-.09.09-.13.26-.13a.43.43,0,0,1,.29.17l.08.1A.42.42,0,0,1,16.7,11l.16,0A.17.17,0,0,1,17,11a.2.2,0,0,1,.06.11,1.51,1.51,0,0,0-.06.44A2,2,0,0,0,17,12a3.1,3.1,0,0,0,.1.36,1.1,1.1,0,0,0,.13.25.49.49,0,0,0,.1.13l.08.07a.05.05,0,0,1,0,0,.17.17,0,0,1,0,.05l0,.05a.41.41,0,0,0-.06.27,2,2,0,0,0,.16.79,1.42,1.42,0,0,0,.38.57h0c0,.09-.08.13-.23.13A.65.65,0,0,1,17.18,14.49ZM16.43,13c-.12-.51-.19-.79-.2-.83-.06.26-.13.54-.2.83h.4Z"/><path class="cls-3" d="M18.6,14.49l-.06.08-.08.08a.4.4,0,0,1-.23.09.3.3,0,0,1-.18,0,.12.12,0,0,1-.07-.07v0a.75.75,0,0,0,.22-.35,1.75,1.75,0,0,0,.06-.48,2.62,2.62,0,0,0,0-.43,1.36,1.36,0,0,0-.06-.24.74.74,0,0,0-.08-.13L18,12.9a.05.05,0,0,1,0,0s0,0,0,0l.06-.07a.49.49,0,0,0,.08-.13,1.76,1.76,0,0,0,.08-.6,1.87,1.87,0,0,0-.06-.57.71.71,0,0,0-.22-.31c0-.06,0-.1.13-.13h.12l.15,0,.13.06a1,1,0,0,1,.18.15s0-.05.06-.08l.1-.07A.83.83,0,0,1,19.2,11h.29l.2,0,.18.05.14.07a.43.43,0,0,1,.12.11.65.65,0,0,1,.13.28.87.87,0,0,0,0,.22.54.54,0,0,0,.06.11l.08.09s0,0,0,0l-.05.07a.62.62,0,0,0-.09.29.51.51,0,0,1-.12.3.38.38,0,0,1-.25.14.55.55,0,0,1,.36.38,3.39,3.39,0,0,1,.08.48c0,.2,0,.35.05.45a.74.74,0,0,0,.29.47.72.72,0,0,1-.52.2.44.44,0,0,1-.3-.1.58.58,0,0,1-.18-.25,2.84,2.84,0,0,1-.08-.34c0-.13,0-.25,0-.38a2.9,2.9,0,0,0,0-.34c0-.24-.11-.36-.23-.36H19v.73a1.76,1.76,0,0,0,.06.52,1,1,0,0,0,.2.35c0,.06,0,.1-.13.12l-.11,0a.28.28,0,0,1-.13,0,.29.29,0,0,1-.11-.06A.56.56,0,0,1,18.6,14.49Zm.84-3a.28.28,0,0,0-.16-.05.45.45,0,0,0-.2,0c-.07,0-.11,0-.11.08v1.09a1,1,0,0,0,.41-.06.2.2,0,0,0,.13-.2v-.79S19.49,11.52,19.44,11.48Z"/><path class="cls-3" d="M20.79,14.6a1.08,1.08,0,0,0,.28-.83A1.71,1.71,0,0,0,21,13.1a.5.5,0,0,0-.11-.17.11.11,0,0,1-.05-.07s0,0,0,0l.07-.07a.5.5,0,0,0,.07-.13,1.51,1.51,0,0,0,.09-.6,1.87,1.87,0,0,0-.06-.57.81.81,0,0,0-.22-.31c0-.06,0-.1.13-.13h.14a.38.38,0,0,1,.19.06.37.37,0,0,1,.15.11l.05.06a1,1,0,0,1,.78-.23,1,1,0,0,1,.66.2,1.1,1.1,0,0,1,.28.81,1.28,1.28,0,0,0,.18.82l0,0,0,0L23.3,13a.81.81,0,0,0-.06.13,2,2,0,0,0-.07.66,1,1,0,0,1-.25.73.92.92,0,0,1-.67.25,1,1,0,0,1-.8-.27.62.62,0,0,1-.27.24.41.41,0,0,1-.16,0,.24.24,0,0,1-.15,0s-.07,0-.07-.07Zm1.61-2.81c0-.24-.09-.36-.28-.36s-.27.05-.31.16a1.25,1.25,0,0,0,0,.24c0,.11,0,.23,0,.34s0,.21,0,.27l0,.18a.51.51,0,0,0,0,.1l0,.06s0,.06,0,.08a.13.13,0,0,1,0,.07.44.44,0,0,0-.06.1,2,2,0,0,0-.09.75.82.82,0,0,0,.07.44.3.3,0,0,0,.24.09.3.3,0,0,0,.2-.05l.06-.08a.53.53,0,0,0,0-.11,2.18,2.18,0,0,0,0-.28v0a1.9,1.9,0,0,0-.09-.73l-.06-.11a.11.11,0,0,1,0-.06.08.08,0,0,1,0,0,.28.28,0,0,0,.05-.08l.05-.14A3.48,3.48,0,0,0,22.4,11.79Z"/><path class="cls-3" d="M25.43,12.63c0,.09-.05.16-.16.23a.24.24,0,0,1,.09.06.25.25,0,0,1,.07.15c0,.08,0,.12,0,.13h0a1.26,1.26,0,0,0-.66-.13l-.11,1a.19.19,0,0,0,.1.19.48.48,0,0,0,.18,0,.2.2,0,0,0,.17-.09.33.33,0,0,0,.06-.21.48.48,0,0,0-.16-.36.11.11,0,0,1,.13-.1.43.43,0,0,1,.3.1l0,0a.42.42,0,0,1,.3-.14.18.18,0,0,1,.11,0,.11.11,0,0,1,.06.07.57.57,0,0,0-.19.48.64.64,0,0,0,.21.51s0,.07-.1.09h-.08a.5.5,0,0,1-.4-.22.57.57,0,0,1-.25.16.73.73,0,0,1-.26.06l-.17,0-.11,0-.08,0-.08-.06a.41.41,0,0,1-.09-.1.57.57,0,0,1-.29.24.41.41,0,0,1-.16,0,.24.24,0,0,1-.15,0c-.05,0-.07,0-.07-.07v0a.69.69,0,0,0,.15-.13l.06-.08,0-.1a.52.52,0,0,0,0-.11.42.42,0,0,0,0-.13c0-.07,0-.12,0-.16v-.2a1,1,0,0,0-.23-.79.05.05,0,0,1,0,0s0,0,0,0l.06-.06a.49.49,0,0,0,.08-.13,1.42,1.42,0,0,0,.09-.59,2,2,0,0,0-.07-.58.8.8,0,0,0-.22-.32c0-.06,0-.1.13-.13h.15a.35.35,0,0,1,.2.07.39.39,0,0,1,.15.13l.05.07a.64.64,0,0,1,.5-.27,1.11,1.11,0,0,1,.3,0,.65.65,0,0,1,.25.17.47.47,0,0,1,.39-.22l.13,0a.16.16,0,0,1,.06.08.52.52,0,0,0-.17.2.79.79,0,0,0,0,.28.51.51,0,0,0,.18.43.07.07,0,0,1-.05.06.21.21,0,0,1-.12,0l-.15,0a.35.35,0,0,1-.11-.07l0,0a.39.39,0,0,1-.3.13l-.11,0a.13.13,0,0,1-.06-.07.47.47,0,0,0,.17-.35c0-.15-.08-.22-.25-.22s-.25.05-.25.16v0l.1,1a2.1,2.1,0,0,0,.4,0,.74.74,0,0,0,.26-.1.05.05,0,0,1,0,0A.11.11,0,0,1,25.43,12.63Z"/><path class="cls-3" d="M26.75,14.47a.44.44,0,0,1-.38.27.29.29,0,0,1-.17,0,.12.12,0,0,1-.07-.07v0a.86.86,0,0,0,.22-.34,1.47,1.47,0,0,0,.06-.46,2.9,2.9,0,0,0,0-.45,1.85,1.85,0,0,0-.06-.25.62.62,0,0,0-.08-.12.81.81,0,0,0-.06-.08.05.05,0,0,1,0,0s0,0,0,0l.06-.06a.49.49,0,0,0,.08-.13A1.45,1.45,0,0,0,26.4,12a2,2,0,0,0-.06-.58.8.8,0,0,0-.22-.32c0-.06.05-.1.13-.13h.12a.44.44,0,0,1,.38.24l.06-.07.09-.09a.41.41,0,0,1,.4-.05s.07.05.07.07v0a.64.64,0,0,0-.2.24.94.94,0,0,0-.08.34l.76,1.19a3.83,3.83,0,0,0,.07-1,1.61,1.61,0,0,0-.06-.5.8.8,0,0,0-.22-.32c0-.06,0-.1.13-.13h.12a.44.44,0,0,1,.38.24l0,0s0,0,.05-.06l.07-.08a.43.43,0,0,1,.23-.08.42.42,0,0,1,.18,0,.22.22,0,0,1,.07.07v0a.8.8,0,0,0-.22.32,1.47,1.47,0,0,0-.06.46c0,.19,0,.35,0,.46a.77.77,0,0,0,.07.25.5.5,0,0,0,.07.13l.07.06s0,0,0,0a.08.08,0,0,1,0,0l-.07.08a.63.63,0,0,0-.07.12,1.49,1.49,0,0,0-.09.59,2,2,0,0,0,.06.57.86.86,0,0,0,.22.34c0,.05,0,.1-.13.12l-.14,0a.29.29,0,0,1-.18-.07.6.6,0,0,1-.14-.13l0-.07-.06.08-.08.09a.33.33,0,0,1-.21.1l-.15,0-.07,0a.24.24,0,0,1-.06-.09.73.73,0,0,0,.2-.27,1.13,1.13,0,0,0,.08-.37l-.82-1.16c0,.2,0,.46,0,.79a2.45,2.45,0,0,0,.06.67.86.86,0,0,0,.22.34c0,.06,0,.1-.13.12l-.11,0A.47.47,0,0,1,26.75,14.47Z"/><path class="cls-4" d="M4.54,13.89a.3.3,0,0,1,0-.1s0-.09.11-.15A.58.58,0,0,1,5,13.56H5a.47.47,0,0,1,0-.19.47.47,0,0,1,.07-.25A.24.24,0,0,1,5.26,13a.53.53,0,0,0,0,.13.34.34,0,0,0,0,.16.54.54,0,0,0,.09.15l.11.15a.64.64,0,0,1,.14.38.75.75,0,0,1-.09.37.71.71,0,0,1-.23.28,1.12,1.12,0,0,1-.68.23.91.91,0,0,1-.48-.13.73.73,0,0,1-.31-.36,1.64,1.64,0,0,1-.5.43.32.32,0,0,1-.16.06.18.18,0,0,1-.12,0A.16.16,0,0,1,3,14.7a.22.22,0,0,1,0-.09,2.51,2.51,0,0,0,.51-.69,3.13,3.13,0,0,0,.23-.52,1.72,1.72,0,0,0,.09-.51.25.25,0,0,0,0-.13l0-.06s0,0,.07-.06L4,12.51l.18-.19A1.06,1.06,0,0,0,4.34,12a.78.78,0,0,0,.07-.35.37.37,0,0,0-.13-.3A.37.37,0,0,0,4,11.27a.27.27,0,0,0-.22.1.3.3,0,0,0-.08.22.32.32,0,0,0,.07.22A.21.21,0,0,0,4,11.9h.14s0,0,0,.09,0,.08-.1.12a.43.43,0,0,1-.28.07h0a.47.47,0,0,1,0,.19.49.49,0,0,1-.08.25.24.24,0,0,1-.21.12.57.57,0,0,0,0-.13.38.38,0,0,0,0-.17.56.56,0,0,0-.09-.17.91.91,0,0,1-.11-.16.67.67,0,0,1-.14-.4.54.54,0,0,1,.15-.38.76.76,0,0,1,.36-.24A1.19,1.19,0,0,1,4,11a.93.93,0,0,1,.47.11.64.64,0,0,1,.3.33,1.56,1.56,0,0,1,.49-.39A.29.29,0,0,1,5.45,11a.16.16,0,0,1,.12,0,.14.14,0,0,1,0,.11.19.19,0,0,1,0,.08,2.34,2.34,0,0,0-.5.65,2.52,2.52,0,0,0-.22.5,1.58,1.58,0,0,0-.1.49.38.38,0,0,0,.06.19l-.12.11-.19.19a1.37,1.37,0,0,0-.15.21,1,1,0,0,0-.16.58.38.38,0,0,0,.12.3.48.48,0,0,0,.29.11.33.33,0,0,0,.25-.09A.32.32,0,0,0,5,14.24.41.41,0,0,0,4.89,14a.28.28,0,0,0-.24-.11Z"/><path class="cls-4" d="M4.54,13.89a.3.3,0,0,1,0-.1s0-.09.11-.15A.58.58,0,0,1,5,13.56H5a.47.47,0,0,1,0-.19.47.47,0,0,1,.07-.25A.24.24,0,0,1,5.26,13a.53.53,0,0,0,0,.13.34.34,0,0,0,0,.16.54.54,0,0,0,.09.15l.11.15a.64.64,0,0,1,.14.38.75.75,0,0,1-.09.37.71.71,0,0,1-.23.28,1.12,1.12,0,0,1-.68.23.91.91,0,0,1-.48-.13.73.73,0,0,1-.31-.36,1.64,1.64,0,0,1-.5.43.32.32,0,0,1-.16.06.18.18,0,0,1-.12,0A.16.16,0,0,1,3,14.7a.22.22,0,0,1,0-.09,2.51,2.51,0,0,0,.51-.69,3.13,3.13,0,0,0,.23-.52,1.72,1.72,0,0,0,.09-.51.25.25,0,0,0,0-.13l0-.06s0,0,.07-.06L4,12.51l.18-.19A1.06,1.06,0,0,0,4.34,12a.78.78,0,0,0,.07-.35.37.37,0,0,0-.13-.3A.37.37,0,0,0,4,11.27a.27.27,0,0,0-.22.1.3.3,0,0,0-.08.22.32.32,0,0,0,.07.22A.21.21,0,0,0,4,11.9h.14s0,0,0,.09,0,.08-.1.12a.43.43,0,0,1-.28.07h0a.47.47,0,0,1,0,.19.49.49,0,0,1-.08.25.24.24,0,0,1-.21.12.57.57,0,0,0,0-.13.38.38,0,0,0,0-.17.56.56,0,0,0-.09-.17.91.91,0,0,1-.11-.16.67.67,0,0,1-.14-.4.54.54,0,0,1,.15-.38.76.76,0,0,1,.36-.24A1.19,1.19,0,0,1,4,11a.93.93,0,0,1,.47.11.64.64,0,0,1,.3.33,1.56,1.56,0,0,1,.49-.39A.29.29,0,0,1,5.45,11a.16.16,0,0,1,.12,0,.14.14,0,0,1,0,.11.19.19,0,0,1,0,.08,2.34,2.34,0,0,0-.5.65,2.52,2.52,0,0,0-.22.5,1.58,1.58,0,0,0-.1.49.38.38,0,0,0,.06.19l-.12.11-.19.19a1.37,1.37,0,0,0-.15.21,1,1,0,0,0-.16.58.38.38,0,0,0,.12.3.48.48,0,0,0,.29.11.33.33,0,0,0,.25-.09A.32.32,0,0,0,5,14.24.41.41,0,0,0,4.89,14a.28.28,0,0,0-.24-.11Z"/><path class="cls-4" d="M7.59,12.64c0,.09,0,.16-.16.23s.06,0,.09.06a.25.25,0,0,1,.07.15c0,.08,0,.12,0,.13h0a1.25,1.25,0,0,0-.66-.14l-.11,1a.19.19,0,0,0,.1.19.48.48,0,0,0,.18,0,.2.2,0,0,0,.17-.09A.33.33,0,0,0,7.27,14a.48.48,0,0,0-.16-.36.11.11,0,0,1,.13-.1.43.43,0,0,1,.3.1l0,0a.42.42,0,0,1,.3-.14.18.18,0,0,1,.11,0,.09.09,0,0,1,.06.07.57.57,0,0,0-.19.48.6.6,0,0,0,.21.5s0,.08-.1.1H7.89a.5.5,0,0,1-.4-.22.57.57,0,0,1-.25.16.73.73,0,0,1-.26.06l-.17,0-.1,0a.19.19,0,0,1-.09,0l-.08-.06a.41.41,0,0,1-.09-.1.57.57,0,0,1-.29.24.41.41,0,0,1-.16,0,.24.24,0,0,1-.15,0s-.07,0-.07-.07v0a.69.69,0,0,0,.15-.13L6,14.39l0-.09a.65.65,0,0,0,0-.11.45.45,0,0,0,0-.14c0-.06,0-.11,0-.15v-.2a1,1,0,0,0-.23-.79.05.05,0,0,1,0,0s0,0,0,0l.06-.06A.49.49,0,0,0,6,12.63,1.42,1.42,0,0,0,6.05,12,1.68,1.68,0,0,0,6,11.46a.83.83,0,0,0-.22-.33c0-.05,0-.09.13-.12H6a.41.41,0,0,1,.2.06.51.51,0,0,1,.15.14l.05.06a.66.66,0,0,1,.5-.26,1.11,1.11,0,0,1,.3.05.65.65,0,0,1,.25.17A.47.47,0,0,1,7.88,11L8,11a.16.16,0,0,1,.06.08.52.52,0,0,0-.17.2.79.79,0,0,0,0,.28A.52.52,0,0,0,8,12a.07.07,0,0,1,0,.06.21.21,0,0,1-.12,0l-.15,0A.35.35,0,0,1,7.61,12l0,0a.39.39,0,0,1-.3.13l-.11,0A.13.13,0,0,1,7.1,12a.47.47,0,0,0,.17-.35c0-.15-.08-.22-.25-.22s-.25.05-.25.16v0l.1,1a2.1,2.1,0,0,0,.4,0,.67.67,0,0,0,.26-.1s0,0,0,0A.11.11,0,0,1,7.59,12.64Z"/><path class="cls-4" d="M7.59,12.64c0,.09,0,.16-.16.23s.06,0,.09.06a.25.25,0,0,1,.07.15c0,.08,0,.12,0,.13h0a1.25,1.25,0,0,0-.66-.14l-.11,1a.19.19,0,0,0,.1.19.48.48,0,0,0,.18,0,.2.2,0,0,0,.17-.09A.33.33,0,0,0,7.27,14a.48.48,0,0,0-.16-.36.11.11,0,0,1,.13-.1.43.43,0,0,1,.3.1l0,0a.42.42,0,0,1,.3-.14.18.18,0,0,1,.11,0,.09.09,0,0,1,.06.07.57.57,0,0,0-.19.48.6.6,0,0,0,.21.5s0,.08-.1.1H7.89a.5.5,0,0,1-.4-.22.57.57,0,0,1-.25.16.73.73,0,0,1-.26.06l-.17,0-.1,0a.19.19,0,0,1-.09,0l-.08-.06a.41.41,0,0,1-.09-.1.57.57,0,0,1-.29.24.41.41,0,0,1-.16,0,.24.24,0,0,1-.15,0s-.07,0-.07-.07v0a.69.69,0,0,0,.15-.13L6,14.39l0-.09a.65.65,0,0,0,0-.11.45.45,0,0,0,0-.14c0-.06,0-.11,0-.15v-.2a1,1,0,0,0-.23-.79.05.05,0,0,1,0,0s0,0,0,0l.06-.06A.49.49,0,0,0,6,12.63,1.42,1.42,0,0,0,6.05,12,1.68,1.68,0,0,0,6,11.46a.83.83,0,0,0-.22-.33c0-.05,0-.09.13-.12H6a.41.41,0,0,1,.2.06.51.51,0,0,1,.15.14l.05.06a.66.66,0,0,1,.5-.26,1.11,1.11,0,0,1,.3.05.65.65,0,0,1,.25.17A.47.47,0,0,1,7.88,11L8,11a.16.16,0,0,1,.06.08.52.52,0,0,0-.17.2.79.79,0,0,0,0,.28A.52.52,0,0,0,8,12a.07.07,0,0,1,0,.06.21.21,0,0,1-.12,0l-.15,0A.35.35,0,0,1,7.61,12l0,0a.39.39,0,0,1-.3.13l-.11,0A.13.13,0,0,1,7.1,12a.47.47,0,0,0,.17-.35c0-.15-.08-.22-.25-.22s-.25.05-.25.16v0l.1,1a2.1,2.1,0,0,0,.4,0,.67.67,0,0,0,.26-.1s0,0,0,0A.11.11,0,0,1,7.59,12.64Z"/><path class="cls-4" d="M8.91,14.48a.44.44,0,0,1-.38.27.29.29,0,0,1-.17,0,.12.12,0,0,1-.07-.07v0a.86.86,0,0,0,.22-.34,1.47,1.47,0,0,0,.06-.46,2.83,2.83,0,0,0,0-.45,1.85,1.85,0,0,0-.06-.25L8.4,13l-.06-.07a.05.05,0,0,1,0,0s0,0,0,0l.06-.06a.49.49,0,0,0,.08-.13A1.45,1.45,0,0,0,8.56,12a2,2,0,0,0-.06-.58.91.91,0,0,0-.22-.33c0-.05.05-.09.13-.12h.12a.44.44,0,0,1,.38.24L9,11.17a.38.38,0,0,1,.09-.09.41.41,0,0,1,.4-.05s.07.05.07.07v0a.76.76,0,0,0-.2.25.94.94,0,0,0-.08.34L10,12.91a3.83,3.83,0,0,0,.07-.95,1.61,1.61,0,0,0-.06-.5.91.91,0,0,0-.22-.33c0-.05,0-.09.13-.12h.12a.44.44,0,0,1,.38.24l0,0s0,0,0-.06l.07-.08a.43.43,0,0,1,.23-.08A.42.42,0,0,1,11,11l.07.07v0a.91.91,0,0,0-.22.33,1.47,1.47,0,0,0-.06.46c0,.19,0,.34,0,.46a.77.77,0,0,0,.07.25.5.5,0,0,0,.07.13l.07.06s0,0,0,0a.08.08,0,0,1,0,0L11,13s0,.08-.07.13a1.49,1.49,0,0,0-.09.59,2,2,0,0,0,.06.57.86.86,0,0,0,.22.34c0,.05,0,.1-.13.12l-.14,0a.37.37,0,0,1-.18-.07.92.92,0,0,1-.14-.13l0-.07a.5.5,0,0,1-.06.08l-.08.09a.33.33,0,0,1-.21.1l-.15,0-.07,0a.24.24,0,0,1-.06-.09.73.73,0,0,0,.2-.27,1.13,1.13,0,0,0,.08-.37l-.82-1.16c0,.19,0,.46,0,.79a2.45,2.45,0,0,0,.06.67.86.86,0,0,0,.22.34c0,.05,0,.1-.13.12l-.11,0A.47.47,0,0,1,8.91,14.48Z"/><path class="cls-4" d="M12.63,12a.94.94,0,0,1,1.06-1.07,1,1,0,0,1,.69.24.72.72,0,0,1,.22.58,1.23,1.23,0,0,0,.18.76.07.07,0,0,1,0,.05l-.09,0h-.09l-.07,0-.07,0-.05,0a.1.1,0,0,1,0,0l0,0,0,0v0s0,0,0,0a.09.09,0,0,1,0,0s0,0-.1.08a.3.3,0,0,1-.14.05h-.11l-.06,0,0,0,0,0a0,0,0,0,1,0,0,.06.06,0,0,1,0,0,.57.57,0,0,1,.06-.12,1.18,1.18,0,0,0,.19-.52c0-.19,0-.3-.12-.35a.31.31,0,0,0-.15,0,.28.28,0,0,0-.16,0,.26.26,0,0,0-.11.12,1.25,1.25,0,0,0-.05.38,2.33,2.33,0,0,0,0,.4,1,1,0,0,0,.07.25.76.76,0,0,0,.07.13l.07.08a.09.09,0,0,1,0,0,.05.05,0,0,1,0,0l-.06.07a.49.49,0,0,0-.08.13,1.52,1.52,0,0,0-.09.62v.13a1.18,1.18,0,0,0,0,.36l0,.09a.1.1,0,0,0,0,.05l0,0a.16.16,0,0,0,.12,0,.25.25,0,0,0,.13,0,.32.32,0,0,0,.08-.09.47.47,0,0,0,0-.14,2.28,2.28,0,0,0,0-.31.9.9,0,0,0,0-.31.57.57,0,0,0-.17-.22s0-.07.1-.09h.11l.15,0a.36.36,0,0,1,.13.08l0,0a.77.77,0,0,1,.18-.1.51.51,0,0,1,.2,0,.24.24,0,0,1,.13,0,.12.12,0,0,1,.06.08.46.46,0,0,0-.15.2,1.52,1.52,0,0,0,0,.37,1,1,0,0,0,.07.41.76.76,0,0,0,.23.29.15.15,0,0,1-.09.13.41.41,0,0,1-.19.05.35.35,0,0,1-.21-.07.42.42,0,0,1-.17-.18.82.82,0,0,1-.69.35.85.85,0,0,1-.67-.27,1.25,1.25,0,0,1-.23-.85,1.1,1.1,0,0,0-.23-.82,0,0,0,0,1,0-.08l.06-.07a.52.52,0,0,0,.08-.11A1.57,1.57,0,0,0,12.63,12Z"/><path class="cls-4" d="M12.63,12a.94.94,0,0,1,1.06-1.07,1,1,0,0,1,.69.24.72.72,0,0,1,.22.58,1.23,1.23,0,0,0,.18.76.07.07,0,0,1,0,.05l-.09,0h-.09l-.07,0-.07,0-.05,0a.1.1,0,0,1,0,0l0,0,0,0v0s0,0,0,0a.09.09,0,0,1,0,0s0,0-.1.08a.3.3,0,0,1-.14.05h-.11l-.06,0,0,0,0,0a0,0,0,0,1,0,0,.06.06,0,0,1,0,0,.57.57,0,0,1,.06-.12,1.18,1.18,0,0,0,.19-.52c0-.19,0-.3-.12-.35a.31.31,0,0,0-.15,0,.28.28,0,0,0-.16,0,.26.26,0,0,0-.11.12,1.25,1.25,0,0,0-.05.38,2.33,2.33,0,0,0,0,.4,1,1,0,0,0,.07.25.76.76,0,0,0,.07.13l.07.08a.09.09,0,0,1,0,0,.05.05,0,0,1,0,0l-.06.07a.49.49,0,0,0-.08.13,1.52,1.52,0,0,0-.09.62v.13a1.18,1.18,0,0,0,0,.36l0,.09a.1.1,0,0,0,0,.05l0,0a.16.16,0,0,0,.12,0,.25.25,0,0,0,.13,0,.32.32,0,0,0,.08-.09.47.47,0,0,0,0-.14,2.28,2.28,0,0,0,0-.31.9.9,0,0,0,0-.31.57.57,0,0,0-.17-.22s0-.07.1-.09h.11l.15,0a.36.36,0,0,1,.13.08l0,0a.77.77,0,0,1,.18-.1.51.51,0,0,1,.2,0,.24.24,0,0,1,.13,0,.12.12,0,0,1,.06.08.46.46,0,0,0-.15.2,1.52,1.52,0,0,0,0,.37,1,1,0,0,0,.07.41.76.76,0,0,0,.23.29.15.15,0,0,1-.09.13.41.41,0,0,1-.19.05.35.35,0,0,1-.21-.07.42.42,0,0,1-.17-.18.82.82,0,0,1-.69.35.85.85,0,0,1-.67-.27,1.25,1.25,0,0,1-.23-.85,1.1,1.1,0,0,0-.23-.82,0,0,0,0,1,0-.08l.06-.07a.52.52,0,0,0,.08-.11A1.57,1.57,0,0,0,12.63,12Z"/><path class="cls-4" d="M17.17,14.5a.4.4,0,0,1-.38.25.3.3,0,0,1-.18,0,.2.2,0,0,1-.09-.1.67.67,0,0,0,.14-.45,1.35,1.35,0,0,0,0-.34c0-.08,0-.16-.07-.25l-.07-.25h-.55a1.86,1.86,0,0,1,0,.19c0,.09,0,.16,0,.21a1.37,1.37,0,0,0,0,.4.73.73,0,0,0,.17.49h0a.08.08,0,0,1,0,0l0,0a.17.17,0,0,1-.12.05.28.28,0,0,1-.13,0l-.08-.06a.39.39,0,0,1-.1-.16.81.81,0,0,1-.23.17.52.52,0,0,1-.24.08c-.11,0-.16,0-.16-.12v0a1.22,1.22,0,0,0,.29-.32,2,2,0,0,0,.19-.51l.12-.42a.58.58,0,0,0-.25.12s0,0,0,0a.11.11,0,0,1,0-.08c0-.07,0-.14.16-.19a.16.16,0,0,1-.08-.06.17.17,0,0,1-.08-.13v-.07l0,0,0,0a.69.69,0,0,0,.36.15l.27-1a2,2,0,0,0,.09-.51.65.65,0,0,0-.13-.38h0c0-.09.09-.13.27-.13a.39.39,0,0,1,.29.17l.07.09a.42.42,0,0,1,.27-.23.45.45,0,0,1,.16,0A.21.21,0,0,1,17,11a.2.2,0,0,1,.06.11,1.23,1.23,0,0,0-.07.44A2.89,2.89,0,0,0,17,12a3.07,3.07,0,0,0,.11.36.83.83,0,0,0,.12.25.5.5,0,0,0,.11.13l.07.07a.05.05,0,0,1,0,0,.06.06,0,0,1,0,0l-.05.05a.46.46,0,0,0-.06.28,2.18,2.18,0,0,0,.16.79,1.43,1.43,0,0,0,.39.57h0c0,.08-.08.13-.24.13A.63.63,0,0,1,17.17,14.5ZM16.42,13c-.13-.51-.19-.79-.2-.83-.07.26-.13.54-.2.83h.4Z"/><path class="cls-4" d="M17.17,14.5a.4.4,0,0,1-.38.25.3.3,0,0,1-.18,0,.2.2,0,0,1-.09-.1.67.67,0,0,0,.14-.45,1.35,1.35,0,0,0,0-.34c0-.08,0-.16-.07-.25l-.07-.25h-.55a1.86,1.86,0,0,1,0,.19c0,.09,0,.16,0,.21a1.37,1.37,0,0,0,0,.4.73.73,0,0,0,.17.49h0a.08.08,0,0,1,0,0l0,0a.17.17,0,0,1-.12.05.28.28,0,0,1-.13,0l-.08-.06a.39.39,0,0,1-.1-.16.81.81,0,0,1-.23.17.52.52,0,0,1-.24.08c-.11,0-.16,0-.16-.12v0a1.22,1.22,0,0,0,.29-.32,2,2,0,0,0,.19-.51l.12-.42a.58.58,0,0,0-.25.12s0,0,0,0a.11.11,0,0,1,0-.08c0-.07,0-.14.16-.19a.16.16,0,0,1-.08-.06.17.17,0,0,1-.08-.13v-.07l0,0,0,0a.69.69,0,0,0,.36.15l.27-1a2,2,0,0,0,.09-.51.65.65,0,0,0-.13-.38h0c0-.09.09-.13.27-.13a.39.39,0,0,1,.29.17l.07.09a.42.42,0,0,1,.27-.23.45.45,0,0,1,.16,0A.21.21,0,0,1,17,11a.2.2,0,0,1,.06.11,1.23,1.23,0,0,0-.07.44A2.89,2.89,0,0,0,17,12a3.07,3.07,0,0,0,.11.36.83.83,0,0,0,.12.25.5.5,0,0,0,.11.13l.07.07a.05.05,0,0,1,0,0,.06.06,0,0,1,0,0l-.05.05a.46.46,0,0,0-.06.28,2.18,2.18,0,0,0,.16.79,1.43,1.43,0,0,0,.39.57h0c0,.08-.08.13-.24.13A.63.63,0,0,1,17.17,14.5ZM16.42,13c-.13-.51-.19-.79-.2-.83-.07.26-.13.54-.2.83h.4Z"/><path class="cls-4" d="M18.59,14.5l-.06.08-.09.08a.35.35,0,0,1-.23.09.29.29,0,0,1-.17,0s-.07,0-.07-.07v0a.91.91,0,0,0,.22-.35,1.75,1.75,0,0,0,.06-.48,2.46,2.46,0,0,0,0-.43.59.59,0,0,0-.06-.24.5.5,0,0,0-.07-.13L18,12.91a0,0,0,0,1,0,0,.06.06,0,0,1,0,0,.45.45,0,0,0,.07-.07.5.5,0,0,0,.07-.13,1.51,1.51,0,0,0,.09-.6,1.87,1.87,0,0,0-.06-.57.92.92,0,0,0-.22-.32c0-.05,0-.09.13-.12h.12l.15,0,.13.06a.86.86,0,0,1,.17.15l.06-.08a.41.41,0,0,1,.11-.07.67.67,0,0,1,.35-.08h.3l.19,0,.18.05a.51.51,0,0,1,.15.07.43.43,0,0,1,.12.11.5.5,0,0,1,.12.28.8.8,0,0,0,.05.22.29.29,0,0,0,.06.1c0,.06.07.09.07.1s0,0,0,0l0,.07a.59.59,0,0,0-.1.29.57.57,0,0,1-.11.3.38.38,0,0,1-.26.14.51.51,0,0,1,.36.38,2.25,2.25,0,0,1,.08.48,4.28,4.28,0,0,0,.06.44.7.7,0,0,0,.29.48.74.74,0,0,1-.53.2.47.47,0,0,1-.3-.1.56.56,0,0,1-.17-.25,1.3,1.3,0,0,1-.08-.34c0-.13,0-.25-.05-.38s0-.24,0-.34S19.4,13,19.27,13H19v.73a1.76,1.76,0,0,0,.06.52.78.78,0,0,0,.2.35c0,.05,0,.1-.13.12l-.12,0-.13,0-.11-.06A.52.52,0,0,1,18.59,14.5Zm.84-3a.31.31,0,0,0-.17-.05.51.51,0,0,0-.2,0c-.07,0-.1,0-.1.08v1.09a1.07,1.07,0,0,0,.41-.06.22.22,0,0,0,.13-.2V11.6A.15.15,0,0,0,19.43,11.49Z"/><path class="cls-4" d="M18.59,14.5l-.06.08-.09.08a.35.35,0,0,1-.23.09.29.29,0,0,1-.17,0s-.07,0-.07-.07v0a.91.91,0,0,0,.22-.35,1.75,1.75,0,0,0,.06-.48,2.46,2.46,0,0,0,0-.43.59.59,0,0,0-.06-.24.5.5,0,0,0-.07-.13L18,12.91a0,0,0,0,1,0,0,.06.06,0,0,1,0,0,.45.45,0,0,0,.07-.07.5.5,0,0,0,.07-.13,1.51,1.51,0,0,0,.09-.6,1.87,1.87,0,0,0-.06-.57.92.92,0,0,0-.22-.32c0-.05,0-.09.13-.12h.12l.15,0,.13.06a.86.86,0,0,1,.17.15l.06-.08a.41.41,0,0,1,.11-.07.67.67,0,0,1,.35-.08h.3l.19,0,.18.05a.51.51,0,0,1,.15.07.43.43,0,0,1,.12.11.5.5,0,0,1,.12.28.8.8,0,0,0,.05.22.29.29,0,0,0,.06.1c0,.06.07.09.07.1s0,0,0,0l0,.07a.59.59,0,0,0-.1.29.57.57,0,0,1-.11.3.38.38,0,0,1-.26.14.51.51,0,0,1,.36.38,2.25,2.25,0,0,1,.08.48,4.28,4.28,0,0,0,.06.44.7.7,0,0,0,.29.48.74.74,0,0,1-.53.2.47.47,0,0,1-.3-.1.56.56,0,0,1-.17-.25,1.3,1.3,0,0,1-.08-.34c0-.13,0-.25-.05-.38s0-.24,0-.34S19.4,13,19.27,13H19v.73a1.76,1.76,0,0,0,.06.52.78.78,0,0,0,.2.35c0,.05,0,.1-.13.12l-.12,0-.13,0-.11-.06A.52.52,0,0,1,18.59,14.5Zm.84-3a.31.31,0,0,0-.17-.05.51.51,0,0,0-.2,0c-.07,0-.1,0-.1.08v1.09a1.07,1.07,0,0,0,.41-.06.22.22,0,0,0,.13-.2V11.6A.15.15,0,0,0,19.43,11.49Z"/><path class="cls-4" d="M20.78,14.61a1.12,1.12,0,0,0,.28-.83,1.71,1.71,0,0,0-.09-.67.55.55,0,0,0-.11-.17.15.15,0,0,1-.06-.07s0,0,0,0a.22.22,0,0,0,.06-.07.49.49,0,0,0,.08-.13,1.51,1.51,0,0,0,.09-.6,1.87,1.87,0,0,0-.06-.57,1.08,1.08,0,0,0-.22-.32q0-.08.12-.12H21a.41.41,0,0,1,.2.06.37.37,0,0,1,.15.11l0,.06a1,1,0,0,1,.79-.23.94.94,0,0,1,.65.2,1.06,1.06,0,0,1,.28.81,1.27,1.27,0,0,0,.19.82.05.05,0,0,1,0,.08l-.05.07a.53.53,0,0,0-.06.13,1.92,1.92,0,0,0-.08.66,1,1,0,0,1-.24.73.93.93,0,0,1-.68.25,1,1,0,0,1-.8-.27.53.53,0,0,1-.27.24.41.41,0,0,1-.16,0,.24.24,0,0,1-.15,0,.12.12,0,0,1-.07-.07Zm1.61-2.81c0-.24-.1-.36-.29-.36s-.26.05-.3.16a1.25,1.25,0,0,0,0,.24c0,.11,0,.23,0,.34a1.87,1.87,0,0,0,0,.27c0,.07,0,.13,0,.18a.62.62,0,0,0,0,.1l0,.06a.16.16,0,0,1,0,.08.08.08,0,0,1,0,.06l-.06.11a2,2,0,0,0-.09.75.82.82,0,0,0,.07.44.29.29,0,0,0,.23.09.28.28,0,0,0,.2-.05l.07-.08a.53.53,0,0,0,0-.11c0-.07,0-.16,0-.28v0A1.9,1.9,0,0,0,22.3,13l-.06-.11a.11.11,0,0,1,0-.06.08.08,0,0,1,0,0,.29.29,0,0,0,0-.08.38.38,0,0,0,.05-.14A2.91,2.91,0,0,0,22.39,11.8Z"/><path class="cls-4" d="M20.78,14.61a1.12,1.12,0,0,0,.28-.83,1.71,1.71,0,0,0-.09-.67.55.55,0,0,0-.11-.17.15.15,0,0,1-.06-.07s0,0,0,0a.22.22,0,0,0,.06-.07.49.49,0,0,0,.08-.13,1.51,1.51,0,0,0,.09-.6,1.87,1.87,0,0,0-.06-.57,1.08,1.08,0,0,0-.22-.32q0-.08.12-.12H21a.41.41,0,0,1,.2.06.37.37,0,0,1,.15.11l0,.06a1,1,0,0,1,.79-.23.94.94,0,0,1,.65.2,1.06,1.06,0,0,1,.28.81,1.27,1.27,0,0,0,.19.82.05.05,0,0,1,0,.08l-.05.07a.53.53,0,0,0-.06.13,1.92,1.92,0,0,0-.08.66,1,1,0,0,1-.24.73.93.93,0,0,1-.68.25,1,1,0,0,1-.8-.27.53.53,0,0,1-.27.24.41.41,0,0,1-.16,0,.24.24,0,0,1-.15,0,.12.12,0,0,1-.07-.07Zm1.61-2.81c0-.24-.1-.36-.29-.36s-.26.05-.3.16a1.25,1.25,0,0,0,0,.24c0,.11,0,.23,0,.34a1.87,1.87,0,0,0,0,.27c0,.07,0,.13,0,.18a.62.62,0,0,0,0,.1l0,.06a.16.16,0,0,1,0,.08.08.08,0,0,1,0,.06l-.06.11a2,2,0,0,0-.09.75.82.82,0,0,0,.07.44.29.29,0,0,0,.23.09.28.28,0,0,0,.2-.05l.07-.08a.53.53,0,0,0,0-.11c0-.07,0-.16,0-.28v0A1.9,1.9,0,0,0,22.3,13l-.06-.11a.11.11,0,0,1,0-.06.08.08,0,0,1,0,0,.29.29,0,0,0,0-.08.38.38,0,0,0,.05-.14A2.91,2.91,0,0,0,22.39,11.8Z"/><path class="cls-4" d="M25.42,12.64c0,.09-.06.16-.16.23s0,0,.08.06a.28.28,0,0,1,.08.15c0,.08,0,.12-.05.13h0a1.29,1.29,0,0,0-.67-.14l-.1,1a.19.19,0,0,0,.09.19.5.5,0,0,0,.19,0,.21.21,0,0,0,.17-.09A.33.33,0,0,0,25.1,14a.49.49,0,0,0-.17-.36.12.12,0,0,1,.14-.1.45.45,0,0,1,.3.1l0,0a.43.43,0,0,1,.31-.14.2.2,0,0,1,.11,0,.1.1,0,0,1,.05.07.59.59,0,0,0-.19.48.58.58,0,0,0,.22.5s0,.08-.1.1h-.09a.5.5,0,0,1-.39-.22.63.63,0,0,1-.25.16.73.73,0,0,1-.26.06l-.17,0-.11,0-.09,0-.07-.06a.94.94,0,0,1-.1-.1.55.55,0,0,1-.28.24.47.47,0,0,1-.17,0,.24.24,0,0,1-.15,0,.12.12,0,0,1-.07-.07v0a.4.4,0,0,0,.15-.13.35.35,0,0,0,.06-.09.19.19,0,0,0,0-.09c0-.05,0-.08,0-.11s0-.07,0-.14V13.7a1,1,0,0,0-.23-.79.08.08,0,0,1,0,0s0,0,0,0l.07-.06a.5.5,0,0,0,.07-.13,1.42,1.42,0,0,0,.09-.59,2,2,0,0,0-.06-.58.83.83,0,0,0-.22-.33c0-.05,0-.09.13-.12h.14a.41.41,0,0,1,.2.06.46.46,0,0,1,.16.14l.05.06a.64.64,0,0,1,.49-.26,1.18,1.18,0,0,1,.31.05.61.61,0,0,1,.24.17.5.5,0,0,1,.4-.22l.12,0a.16.16,0,0,1,.06.08.59.59,0,0,0-.16.2.78.78,0,0,0-.05.28.5.5,0,0,0,.19.43s0,.05-.05.06a.21.21,0,0,1-.12,0l-.15,0L25.43,12l0,0a.42.42,0,0,1-.31.13l-.1,0a.13.13,0,0,1-.06-.07.46.46,0,0,0,.16-.35c0-.15-.08-.22-.25-.22s-.25.05-.25.16v0l.1,1a2.22,2.22,0,0,0,.41,0,.82.82,0,0,0,.26-.1.05.05,0,0,1,0,0A.19.19,0,0,1,25.42,12.64Z"/><path class="cls-4" d="M25.42,12.64c0,.09-.06.16-.16.23s0,0,.08.06a.28.28,0,0,1,.08.15c0,.08,0,.12-.05.13h0a1.29,1.29,0,0,0-.67-.14l-.1,1a.19.19,0,0,0,.09.19.5.5,0,0,0,.19,0,.21.21,0,0,0,.17-.09A.33.33,0,0,0,25.1,14a.49.49,0,0,0-.17-.36.12.12,0,0,1,.14-.1.45.45,0,0,1,.3.1l0,0a.43.43,0,0,1,.31-.14.2.2,0,0,1,.11,0,.1.1,0,0,1,.05.07.59.59,0,0,0-.19.48.58.58,0,0,0,.22.5s0,.08-.1.1h-.09a.5.5,0,0,1-.39-.22.63.63,0,0,1-.25.16.73.73,0,0,1-.26.06l-.17,0-.11,0-.09,0-.07-.06a.94.94,0,0,1-.1-.1.55.55,0,0,1-.28.24.47.47,0,0,1-.17,0,.24.24,0,0,1-.15,0,.12.12,0,0,1-.07-.07v0a.4.4,0,0,0,.15-.13.35.35,0,0,0,.06-.09.19.19,0,0,0,0-.09c0-.05,0-.08,0-.11s0-.07,0-.14V13.7a1,1,0,0,0-.23-.79.08.08,0,0,1,0,0s0,0,0,0l.07-.06a.5.5,0,0,0,.07-.13,1.42,1.42,0,0,0,.09-.59,2,2,0,0,0-.06-.58.83.83,0,0,0-.22-.33c0-.05,0-.09.13-.12h.14a.41.41,0,0,1,.2.06.46.46,0,0,1,.16.14l.05.06a.64.64,0,0,1,.49-.26,1.18,1.18,0,0,1,.31.05.61.61,0,0,1,.24.17.5.5,0,0,1,.4-.22l.12,0a.16.16,0,0,1,.06.08.59.59,0,0,0-.16.2.78.78,0,0,0-.05.28.5.5,0,0,0,.19.43s0,.05-.05.06a.21.21,0,0,1-.12,0l-.15,0L25.43,12l0,0a.42.42,0,0,1-.31.13l-.1,0a.13.13,0,0,1-.06-.07.46.46,0,0,0,.16-.35c0-.15-.08-.22-.25-.22s-.25.05-.25.16v0l.1,1a2.22,2.22,0,0,0,.41,0,.82.82,0,0,0,.26-.1.05.05,0,0,1,0,0A.19.19,0,0,1,25.42,12.64Z"/><path class="cls-4" d="M26.74,14.48a.47.47,0,0,1-.38.27.29.29,0,0,1-.17,0s-.07,0-.07-.07v0a.86.86,0,0,0,.22-.34,1.47,1.47,0,0,0,.06-.46c0-.19,0-.34,0-.45a1,1,0,0,0-.07-.25s-.05-.09-.07-.13l-.07-.07a.08.08,0,0,1,0,0s0,0,0,0l.07-.06a.5.5,0,0,0,.07-.13,1.42,1.42,0,0,0,.09-.59,2,2,0,0,0-.06-.58.91.91,0,0,0-.22-.33c0-.05,0-.09.13-.12h.12a.44.44,0,0,1,.38.24l.06-.07.08-.09a.46.46,0,0,1,.23-.08.42.42,0,0,1,.18,0,.22.22,0,0,1,.07.07v0a.8.8,0,0,0-.21.25,1,1,0,0,0-.07.34l.75,1.19a3.67,3.67,0,0,0,.08-.95,1.61,1.61,0,0,0-.06-.5,1.06,1.06,0,0,0-.22-.33c0-.05,0-.09.13-.12h.11a.47.47,0,0,1,.39.24v0l0-.06a.6.6,0,0,1,.08-.08.4.4,0,0,1,.23-.08.45.45,0,0,1,.18,0l.07.07v0a1.1,1.1,0,0,0-.23.33,1.47,1.47,0,0,0-.06.46,2.86,2.86,0,0,0,0,.46,1.3,1.3,0,0,0,.06.25.49.49,0,0,0,.08.13l.06.06s0,0,0,0a.05.05,0,0,1,0,0l-.06.07-.08.13a1.49,1.49,0,0,0-.09.59,2,2,0,0,0,.06.57,1,1,0,0,0,.23.34c0,.05,0,.1-.13.12l-.14,0a.34.34,0,0,1-.18-.07.6.6,0,0,1-.14-.13l0-.07-.06.08-.09.09a.29.29,0,0,1-.21.1l-.14,0-.08,0a.14.14,0,0,1-.05-.09.73.73,0,0,0,.2-.27,1.16,1.16,0,0,0,.07-.37l-.81-1.16c0,.19,0,.46,0,.79a2.45,2.45,0,0,0,.06.67.86.86,0,0,0,.22.34c0,.05-.05.1-.13.12l-.12,0A.44.44,0,0,1,26.74,14.48Z"/><path class="cls-4" d="M26.74,14.48a.47.47,0,0,1-.38.27.29.29,0,0,1-.17,0s-.07,0-.07-.07v0a.86.86,0,0,0,.22-.34,1.47,1.47,0,0,0,.06-.46c0-.19,0-.34,0-.45a1,1,0,0,0-.07-.25s-.05-.09-.07-.13l-.07-.07a.08.08,0,0,1,0,0s0,0,0,0l.07-.06a.5.5,0,0,0,.07-.13,1.42,1.42,0,0,0,.09-.59,2,2,0,0,0-.06-.58.91.91,0,0,0-.22-.33c0-.05,0-.09.13-.12h.12a.44.44,0,0,1,.38.24l.06-.07.08-.09a.46.46,0,0,1,.23-.08.42.42,0,0,1,.18,0,.22.22,0,0,1,.07.07v0a.8.8,0,0,0-.21.25,1,1,0,0,0-.07.34l.75,1.19a3.67,3.67,0,0,0,.08-.95,1.61,1.61,0,0,0-.06-.5,1.06,1.06,0,0,0-.22-.33c0-.05,0-.09.13-.12h.11a.47.47,0,0,1,.39.24v0l0-.06a.6.6,0,0,1,.08-.08.4.4,0,0,1,.23-.08.45.45,0,0,1,.18,0l.07.07v0a1.1,1.1,0,0,0-.23.33,1.47,1.47,0,0,0-.06.46,2.86,2.86,0,0,0,0,.46,1.3,1.3,0,0,0,.06.25.49.49,0,0,0,.08.13l.06.06s0,0,0,0a.05.05,0,0,1,0,0l-.06.07-.08.13a1.49,1.49,0,0,0-.09.59,2,2,0,0,0,.06.57,1,1,0,0,0,.23.34c0,.05,0,.1-.13.12l-.14,0a.34.34,0,0,1-.18-.07.6.6,0,0,1-.14-.13l0-.07-.06.08-.09.09a.29.29,0,0,1-.21.1l-.14,0-.08,0a.14.14,0,0,1-.05-.09.73.73,0,0,0,.2-.27,1.16,1.16,0,0,0,.07-.37l-.81-1.16c0,.19,0,.46,0,.79a2.45,2.45,0,0,0,.06.67.86.86,0,0,0,.22.34c0,.05-.05.1-.13.12l-.12,0A.44.44,0,0,1,26.74,14.48Z"/></g></g></svg>